<svg width="101" height="104" viewBox="0 0 101 104" fill="none" xmlns="http://www.w3.org/2000/svg">
<path d="M50.75 77L58.1875 72.5H100.062V77H50.75ZM36 86L43.5625 81.5H100.062V86H36ZM21.0625 95L28.6875 90.5H100.062V95H21.0625ZM50.25 27.5L42.8125 32H0.9375V27.5H50.25ZM65 18.5L57.4375 23H0.9375V18.5H65ZM79.9375 9.5L72.3125 14H0.9375V9.5H79.9375ZM100.062 11.0625V16.3125L0.9375 82.9375V77.6875L100.062 11.0625ZM100.062 21.6875V27L0.9375 93.5625V88.1875L100.062 21.6875ZM100.062 32.25V37.5L7.625 99.5H100.062V104H0.9375C0.9375 104 0.9375 102.229 0.9375 98.6875L100.062 32.25ZM93.375 5H0.9375V0.5H100.062C100.062 0.5 100.062 2.29167 100.062 5.875L0.9375 72.3125V67.125L93.375 5Z" fill="#00FF47"/>
</svg>
